<svg xmlns="http://www.w3.org/2000/svg" xmlns:xlink="http://www.w3.org/1999/xlink" width="2000" zoomAndPan="magnify" viewBox="0 0 1500 1499.999933" height="2000" preserveAspectRatio="xMidYMid meet" version="1.0"><defs><clipPath id="35c320e522"><path d="M 231.722656 0.722656 L 1268.277344 0.722656 L 1268.277344 1037.277344 L 231.722656 1037.277344 Z M 231.722656 0.722656 " clip-rule="nonzero"/></clipPath><clipPath id="f302b5b31d"><path d="M 750 0.722656 C 741.519531 0.722656 733.039062 0.933594 724.570312 1.347656 C 716.097656 1.765625 707.640625 2.386719 699.199219 3.21875 C 690.757812 4.050781 682.34375 5.089844 673.953125 6.332031 C 665.5625 7.578125 657.207031 9.027344 648.890625 10.683594 C 640.570312 12.335938 632.296875 14.195312 624.070312 16.257812 C 615.839844 18.316406 607.667969 20.578125 599.550781 23.039062 C 591.4375 25.503906 583.382812 28.164062 575.398438 31.019531 C 567.410156 33.878906 559.5 36.929688 551.664062 40.175781 C 543.828125 43.421875 536.074219 46.859375 528.410156 50.484375 C 520.742188 54.109375 513.167969 57.921875 505.6875 61.921875 C 498.207031 65.917969 490.828125 70.097656 483.554688 74.460938 C 476.277344 78.820312 469.113281 83.355469 462.0625 88.070312 C 455.007812 92.78125 448.078125 97.664062 441.261719 102.71875 C 434.449219 107.769531 427.765625 112.988281 421.210938 118.367188 C 414.652344 123.75 408.230469 129.285156 401.945312 134.984375 C 395.664062 140.679688 389.519531 146.527344 383.523438 152.523438 C 377.527344 158.519531 371.679688 164.664062 365.984375 170.945312 C 360.285156 177.230469 354.75 183.652344 349.367188 190.210938 C 343.988281 196.765625 338.769531 203.449219 333.71875 210.261719 C 328.664062 217.074219 323.78125 224.007812 319.070312 231.0625 C 314.355469 238.113281 309.820312 245.277344 305.460938 252.554688 C 301.097656 259.828125 296.917969 267.207031 292.921875 274.6875 C 288.921875 282.167969 285.109375 289.742188 281.484375 297.410156 C 277.859375 305.074219 274.421875 312.828125 271.175781 320.664062 C 267.929688 328.5 264.878906 336.410156 262.019531 344.398438 C 259.164062 352.382812 256.503906 360.4375 254.039062 368.550781 C 251.578125 376.667969 249.316406 384.839844 247.257812 393.070312 C 245.195312 401.296875 243.335938 409.570312 241.683594 417.890625 C 240.027344 426.207031 238.578125 434.5625 237.332031 442.953125 C 236.089844 451.34375 235.050781 459.757812 234.21875 468.199219 C 233.386719 476.640625 232.765625 485.097656 232.347656 493.570312 C 231.933594 502.039062 231.722656 510.519531 231.722656 519 C 231.722656 527.480469 231.933594 535.957031 232.347656 544.429688 C 232.765625 552.902344 233.386719 561.359375 234.21875 569.800781 C 235.050781 578.242188 236.089844 586.65625 237.332031 595.046875 C 238.578125 603.4375 240.027344 611.792969 241.683594 620.109375 C 243.335938 628.429688 245.195312 636.703125 247.257812 644.929688 C 249.316406 653.160156 251.578125 661.332031 254.039062 669.449219 C 256.503906 677.5625 259.164062 685.617188 262.019531 693.601562 C 264.878906 701.585938 267.929688 709.5 271.175781 717.335938 C 274.421875 725.171875 277.859375 732.921875 281.484375 740.589844 C 285.109375 748.257812 288.921875 755.832031 292.921875 763.3125 C 296.917969 770.792969 301.097656 778.171875 305.460938 785.445312 C 309.820312 792.722656 314.355469 799.886719 319.070312 806.9375 C 323.78125 813.992188 328.664062 820.921875 333.71875 827.734375 C 338.769531 834.550781 343.988281 841.234375 349.367188 847.789062 C 354.75 854.347656 360.285156 860.769531 365.984375 867.050781 C 371.679688 873.335938 377.527344 879.476562 383.523438 885.476562 C 389.519531 891.472656 395.664062 897.320312 401.945312 903.015625 C 408.230469 908.710938 414.652344 914.25 421.210938 919.632812 C 427.765625 925.011719 434.449219 930.230469 441.261719 935.28125 C 448.074219 940.335938 455.007812 945.21875 462.0625 949.929688 C 469.113281 954.640625 476.277344 959.179688 483.554688 963.539062 C 490.828125 967.898438 498.207031 972.078125 505.6875 976.078125 C 513.167969 980.078125 520.742188 983.890625 528.410156 987.515625 C 536.074219 991.140625 543.828125 994.578125 551.664062 997.824219 C 559.5 1001.070312 567.410156 1004.121094 575.398438 1006.980469 C 583.382812 1009.835938 591.4375 1012.496094 599.550781 1014.957031 C 607.667969 1017.421875 615.839844 1019.683594 624.070312 1021.742188 C 632.296875 1023.804688 640.570312 1025.664062 648.890625 1027.316406 C 657.207031 1028.972656 665.5625 1030.421875 673.953125 1031.664062 C 682.34375 1032.910156 690.757812 1033.949219 699.199219 1034.78125 C 707.640625 1035.613281 716.097656 1036.234375 724.570312 1036.652344 C 733.042969 1037.066406 741.519531 1037.277344 750 1037.277344 C 758.480469 1037.277344 766.957031 1037.066406 775.429688 1036.652344 C 783.902344 1036.234375 792.359375 1035.613281 800.800781 1034.78125 C 809.242188 1033.949219 817.65625 1032.910156 826.046875 1031.664062 C 834.4375 1030.421875 842.792969 1028.972656 851.109375 1027.316406 C 859.429688 1025.664062 867.703125 1023.804688 875.929688 1021.742188 C 884.160156 1019.683594 892.332031 1017.421875 900.449219 1014.957031 C 908.5625 1012.496094 916.617188 1009.835938 924.601562 1006.980469 C 932.585938 1004.121094 940.5 1001.070312 948.335938 997.824219 C 956.171875 994.578125 963.921875 991.140625 971.589844 987.515625 C 979.257812 983.890625 986.832031 980.078125 994.3125 976.078125 C 1001.792969 972.078125 1009.171875 967.898438 1016.445312 963.539062 C 1023.722656 959.179688 1030.886719 954.640625 1037.9375 949.929688 C 1044.992188 945.21875 1051.921875 940.335938 1058.738281 935.28125 C 1065.550781 930.230469 1072.234375 925.011719 1078.789062 919.632812 C 1085.347656 914.25 1091.769531 908.710938 1098.050781 903.015625 C 1104.335938 897.320312 1110.476562 891.472656 1116.476562 885.476562 C 1122.472656 879.476562 1128.320312 873.335938 1134.015625 867.050781 C 1139.714844 860.769531 1145.25 854.347656 1150.632812 847.789062 C 1156.011719 841.234375 1161.230469 834.550781 1166.28125 827.734375 C 1171.335938 820.921875 1176.21875 813.992188 1180.929688 806.9375 C 1185.644531 799.886719 1190.179688 792.722656 1194.539062 785.445312 C 1198.898438 778.171875 1203.078125 770.792969 1207.078125 763.3125 C 1211.078125 755.832031 1214.890625 748.257812 1218.515625 740.589844 C 1222.140625 732.921875 1225.578125 725.171875 1228.824219 717.335938 C 1232.070312 709.5 1235.121094 701.585938 1237.980469 693.601562 C 1240.835938 685.617188 1243.496094 677.5625 1245.957031 669.449219 C 1248.421875 661.332031 1250.683594 653.160156 1252.742188 644.929688 C 1254.804688 636.703125 1256.664062 628.429688 1258.316406 620.109375 C 1259.972656 611.792969 1261.421875 603.4375 1262.667969 595.046875 C 1263.910156 586.65625 1264.949219 578.242188 1265.78125 569.800781 C 1266.613281 561.359375 1267.234375 552.902344 1267.652344 544.429688 C 1268.066406 535.957031 1268.277344 527.480469 1268.277344 519 C 1268.277344 510.519531 1268.066406 502.039062 1267.652344 493.570312 C 1267.234375 485.097656 1266.613281 476.640625 1265.78125 468.199219 C 1264.949219 459.757812 1263.910156 451.34375 1262.667969 442.953125 C 1261.421875 434.5625 1259.972656 426.207031 1258.316406 417.890625 C 1256.664062 409.570312 1254.804688 401.296875 1252.742188 393.070312 C 1250.683594 384.839844 1248.421875 376.667969 1245.957031 368.550781 C 1243.496094 360.4375 1240.835938 352.382812 1237.980469 344.398438 C 1235.121094 336.410156 1232.070312 328.5 1228.824219 320.664062 C 1225.578125 312.828125 1222.140625 305.074219 1218.515625 297.410156 C 1214.890625 289.742188 1211.078125 282.167969 1207.078125 274.6875 C 1203.078125 267.207031 1198.898438 259.828125 1194.539062 252.554688 C 1190.179688 245.277344 1185.644531 238.113281 1180.929688 231.0625 C 1176.21875 224.007812 1171.335938 217.074219 1166.28125 210.261719 C 1161.230469 203.449219 1156.011719 196.765625 1150.632812 190.210938 C 1145.25 183.652344 1139.714844 177.230469 1134.015625 170.945312 C 1128.320312 164.664062 1122.472656 158.519531 1116.476562 152.523438 C 1110.476562 146.527344 1104.335938 140.679688 1098.050781 134.984375 C 1091.769531 129.285156 1085.347656 123.75 1078.789062 118.367188 C 1072.234375 112.988281 1065.550781 107.769531 1058.738281 102.71875 C 1051.921875 97.664062 1044.992188 92.78125 1037.9375 88.070312 C 1030.886719 83.355469 1023.722656 78.820312 1016.445312 74.460938 C 1009.171875 70.097656 1001.792969 65.917969 994.3125 61.921875 C 986.832031 57.921875 979.257812 54.109375 971.589844 50.484375 C 963.921875 46.859375 956.171875 43.421875 948.335938 40.175781 C 940.5 36.929688 932.585938 33.878906 924.601562 31.019531 C 916.617188 28.164062 908.5625 25.503906 900.449219 23.039062 C 892.332031 20.578125 884.160156 18.316406 875.929688 16.257812 C 867.703125 14.195312 859.429688 12.335938 851.109375 10.683594 C 842.792969 9.027344 834.4375 7.578125 826.046875 6.332031 C 817.65625 5.089844 809.242188 4.050781 800.800781 3.21875 C 792.359375 2.386719 783.902344 1.765625 775.429688 1.347656 C 766.957031 0.933594 758.480469 0.722656 750 0.722656 Z M 750 0.722656 " clip-rule="nonzero"/></clipPath><clipPath id="c6b7fd35af"><path d="M 0.722656 0.722656 L 1037.277344 0.722656 L 1037.277344 1037.277344 L 0.722656 1037.277344 Z M 0.722656 0.722656 " clip-rule="nonzero"/></clipPath><clipPath id="10335d49d9"><path d="M 519 0.722656 C 510.519531 0.722656 502.039062 0.933594 493.570312 1.347656 C 485.097656 1.765625 476.640625 2.386719 468.199219 3.21875 C 459.757812 4.050781 451.34375 5.089844 442.953125 6.332031 C 434.5625 7.578125 426.207031 9.027344 417.890625 10.683594 C 409.570312 12.335938 401.296875 14.195312 393.070312 16.257812 C 384.839844 18.316406 376.667969 20.578125 368.550781 23.039062 C 360.4375 25.503906 352.382812 28.164062 344.398438 31.019531 C 336.410156 33.878906 328.5 36.929688 320.664062 40.175781 C 312.828125 43.421875 305.074219 46.859375 297.410156 50.484375 C 289.742188 54.109375 282.167969 57.921875 274.6875 61.921875 C 267.207031 65.917969 259.828125 70.097656 252.554688 74.460938 C 245.277344 78.820312 238.113281 83.355469 231.0625 88.070312 C 224.007812 92.78125 217.078125 97.664062 210.261719 102.71875 C 203.449219 107.769531 196.765625 112.988281 190.210938 118.367188 C 183.652344 123.75 177.230469 129.285156 170.945312 134.984375 C 164.664062 140.679688 158.519531 146.527344 152.523438 152.523438 C 146.527344 158.519531 140.679688 164.664062 134.984375 170.945312 C 129.285156 177.230469 123.75 183.652344 118.367188 190.210938 C 112.988281 196.765625 107.769531 203.449219 102.71875 210.261719 C 97.664062 217.074219 92.78125 224.007812 88.070312 231.0625 C 83.355469 238.113281 78.820312 245.277344 74.460938 252.554688 C 70.097656 259.828125 65.917969 267.207031 61.921875 274.6875 C 57.921875 282.167969 54.109375 289.742188 50.484375 297.410156 C 46.859375 305.074219 43.421875 312.828125 40.175781 320.664062 C 36.929688 328.5 33.878906 336.410156 31.019531 344.398438 C 28.164062 352.382812 25.503906 360.4375 23.039062 368.550781 C 20.578125 376.667969 18.316406 384.839844 16.257812 393.070312 C 14.195312 401.296875 12.335938 409.570312 10.683594 417.890625 C 9.027344 426.207031 7.578125 434.5625 6.332031 442.953125 C 5.089844 451.34375 4.050781 459.757812 3.21875 468.199219 C 2.386719 476.640625 1.765625 485.097656 1.347656 493.570312 C 0.933594 502.039062 0.722656 510.519531 0.722656 519 C 0.722656 527.480469 0.933594 535.957031 1.347656 544.429688 C 1.765625 552.902344 2.386719 561.359375 3.21875 569.800781 C 4.050781 578.242188 5.089844 586.65625 6.332031 595.046875 C 7.578125 603.4375 9.027344 611.792969 10.683594 620.109375 C 12.335938 628.429688 14.195312 636.703125 16.257812 644.929688 C 18.316406 653.160156 20.578125 661.332031 23.039062 669.449219 C 25.503906 677.5625 28.164062 685.617188 31.019531 693.601562 C 33.878906 701.585938 36.929688 709.5 40.175781 717.335938 C 43.421875 725.171875 46.859375 732.921875 50.484375 740.589844 C 54.109375 748.257812 57.921875 755.832031 61.921875 763.3125 C 65.917969 770.792969 70.097656 778.171875 74.460938 785.445312 C 78.820312 792.722656 83.355469 799.886719 88.070312 806.9375 C 92.78125 813.992188 97.664062 820.921875 102.71875 827.734375 C 107.769531 834.550781 112.988281 841.234375 118.367188 847.789062 C 123.75 854.347656 129.285156 860.769531 134.984375 867.050781 C 140.679688 873.335938 146.527344 879.476562 152.523438 885.476562 C 158.519531 891.472656 164.664062 897.320312 170.945312 903.015625 C 177.230469 908.710938 183.652344 914.25 190.210938 919.632812 C 196.765625 925.011719 203.449219 930.230469 210.261719 935.28125 C 217.074219 940.335938 224.007812 945.21875 231.0625 949.929688 C 238.113281 954.640625 245.277344 959.179688 252.554688 963.539062 C 259.828125 967.898438 267.207031 972.078125 274.6875 976.078125 C 282.167969 980.078125 289.742188 983.890625 297.410156 987.515625 C 305.074219 991.140625 312.828125 994.578125 320.664062 997.824219 C 328.5 1001.070312 336.410156 1004.121094 344.398438 1006.980469 C 352.382812 1009.835938 360.4375 1012.496094 368.550781 1014.957031 C 376.667969 1017.421875 384.839844 1019.683594 393.070312 1021.742188 C 401.296875 1023.804688 409.570312 1025.664062 417.890625 1027.316406 C 426.207031 1028.972656 434.5625 1030.421875 442.953125 1031.664062 C 451.34375 1032.910156 459.757812 1033.949219 468.199219 1034.78125 C 476.640625 1035.613281 485.097656 1036.234375 493.570312 1036.652344 C 502.042969 1037.066406 510.519531 1037.277344 519 1037.277344 C 527.480469 1037.277344 535.957031 1037.066406 544.429688 1036.652344 C 552.902344 1036.234375 561.359375 1035.613281 569.800781 1034.78125 C 578.242188 1033.949219 586.65625 1032.910156 595.046875 1031.664062 C 603.4375 1030.421875 611.792969 1028.972656 620.109375 1027.316406 C 628.429688 1025.664062 636.703125 1023.804688 644.929688 1021.742188 C 653.160156 1019.683594 661.332031 1017.421875 669.449219 1014.957031 C 677.5625 1012.496094 685.617188 1009.835938 693.601562 1006.980469 C 701.585938 1004.121094 709.5 1001.070312 717.335938 997.824219 C 725.171875 994.578125 732.921875 991.140625 740.589844 987.515625 C 748.257812 983.890625 755.832031 980.078125 763.3125 976.078125 C 770.792969 972.078125 778.171875 967.898438 785.445312 963.539062 C 792.722656 959.179688 799.886719 954.640625 806.9375 949.929688 C 813.992188 945.21875 820.921875 940.335938 827.738281 935.28125 C 834.550781 930.230469 841.234375 925.011719 847.789062 919.632812 C 854.347656 914.25 860.769531 908.710938 867.050781 903.015625 C 873.335938 897.320312 879.476562 891.472656 885.476562 885.476562 C 891.472656 879.476562 897.320312 873.335938 903.015625 867.050781 C 908.714844 860.769531 914.25 854.347656 919.632812 847.789062 C 925.011719 841.234375 930.230469 834.550781 935.28125 827.734375 C 940.335938 820.921875 945.21875 813.992188 949.929688 806.9375 C 954.644531 799.886719 959.179688 792.722656 963.539062 785.445312 C 967.898438 778.171875 972.078125 770.792969 976.078125 763.3125 C 980.078125 755.832031 983.890625 748.257812 987.515625 740.589844 C 991.140625 732.921875 994.578125 725.171875 997.824219 717.335938 C 1001.070312 709.5 1004.121094 701.585938 1006.980469 693.601562 C 1009.835938 685.617188 1012.496094 677.5625 1014.957031 669.449219 C 1017.421875 661.332031 1019.683594 653.160156 1021.742188 644.929688 C 1023.804688 636.703125 1025.664062 628.429688 1027.316406 620.109375 C 1028.972656 611.792969 1030.421875 603.4375 1031.667969 595.046875 C 1032.910156 586.65625 1033.949219 578.242188 1034.78125 569.800781 C 1035.613281 561.359375 1036.234375 552.902344 1036.652344 544.429688 C 1037.066406 535.957031 1037.277344 527.480469 1037.277344 519 C 1037.277344 510.519531 1037.066406 502.039062 1036.652344 493.570312 C 1036.234375 485.097656 1035.613281 476.640625 1034.78125 468.199219 C 1033.949219 459.757812 1032.910156 451.34375 1031.667969 442.953125 C 1030.421875 434.5625 1028.972656 426.207031 1027.316406 417.890625 C 1025.664062 409.570312 1023.804688 401.296875 1021.742188 393.070312 C 1019.683594 384.839844 1017.421875 376.667969 1014.957031 368.550781 C 1012.496094 360.4375 1009.835938 352.382812 1006.980469 344.398438 C 1004.121094 336.410156 1001.070312 328.5 997.824219 320.664062 C 994.578125 312.828125 991.140625 305.074219 987.515625 297.410156 C 983.890625 289.742188 980.078125 282.167969 976.078125 274.6875 C 972.078125 267.207031 967.898438 259.828125 963.539062 252.554688 C 959.179688 245.277344 954.644531 238.113281 949.929688 231.0625 C 945.21875 224.007812 940.335938 217.074219 935.28125 210.261719 C 930.230469 203.449219 925.011719 196.765625 919.632812 190.210938 C 914.25 183.652344 908.714844 177.230469 903.015625 170.945312 C 897.320312 164.664062 891.472656 158.519531 885.476562 152.523438 C 879.476562 146.527344 873.335938 140.679688 867.050781 134.984375 C 860.769531 129.285156 854.347656 123.75 847.789062 118.367188 C 841.234375 112.988281 834.550781 107.769531 827.738281 102.71875 C 820.921875 97.664062 813.992188 92.78125 806.9375 88.070312 C 799.886719 83.355469 792.722656 78.820312 785.445312 74.460938 C 778.171875 70.097656 770.792969 65.917969 763.3125 61.921875 C 755.832031 57.921875 748.257812 54.109375 740.589844 50.484375 C 732.921875 46.859375 725.171875 43.421875 717.335938 40.175781 C 709.5 36.929688 701.585938 33.878906 693.601562 31.019531 C 685.617188 28.164062 677.5625 25.503906 669.449219 23.039062 C 661.332031 20.578125 653.160156 18.316406 644.929688 16.257812 C 636.703125 14.195312 628.429688 12.335938 620.109375 10.683594 C 611.792969 9.027344 603.4375 7.578125 595.046875 6.332031 C 586.65625 5.089844 578.242188 4.050781 569.800781 3.21875 C 561.359375 2.386719 552.902344 1.765625 544.429688 1.347656 C 535.957031 0.933594 527.480469 0.722656 519 0.722656 Z M 519 0.722656 " clip-rule="nonzero"/></clipPath><clipPath id="3b8c5c3249"><rect x="0" width="1038" y="0" height="1038"/></clipPath><clipPath id="6b002b6730"><path d="M 0 467 L 1500 467 L 1500 570.730469 L 0 570.730469 Z M 0 467 " clip-rule="nonzero"/></clipPath><clipPath id="f05ccdb282"><path d="M 2032.4375 570.730469 C 1982.847656 570.730469 1957.167969 552.601562 1934.511719 536.609375 C 1914.570312 522.535156 1897.347656 510.378906 1861.441406 510.378906 C 1825.53125 510.378906 1808.308594 522.535156 1788.367188 536.609375 C 1765.710938 552.601562 1740.03125 570.730469 1690.441406 570.730469 C 1640.851562 570.730469 1615.171875 552.601562 1592.515625 536.609375 C 1572.574219 522.535156 1555.355469 510.378906 1519.449219 510.378906 C 1483.542969 510.378906 1466.320312 522.535156 1446.382812 536.609375 C 1423.722656 552.601562 1398.042969 570.730469 1348.457031 570.730469 C 1298.867188 570.730469 1273.1875 552.601562 1250.53125 536.609375 C 1230.589844 522.535156 1213.371094 510.378906 1177.464844 510.378906 C 1141.558594 510.378906 1124.335938 522.535156 1104.398438 536.609375 C 1081.742188 552.601562 1056.0625 570.730469 1006.476562 570.730469 C 956.886719 570.730469 931.207031 552.601562 908.550781 536.609375 C 888.609375 522.535156 871.390625 510.378906 835.484375 510.378906 C 799.578125 510.378906 782.355469 522.535156 762.417969 536.609375 C 739.761719 552.601562 714.078125 570.730469 664.492188 570.730469 C 614.902344 570.730469 589.222656 552.601562 566.566406 536.609375 C 546.628906 522.535156 529.40625 510.378906 493.5 510.378906 C 457.59375 510.378906 440.375 522.535156 420.433594 536.609375 C 397.777344 552.601562 372.097656 570.730469 322.507812 570.730469 C 272.921875 570.730469 247.242188 552.601562 224.582031 536.609375 C 204.644531 522.535156 187.425781 510.378906 151.519531 510.378906 C 115.613281 510.378906 98.390625 522.535156 78.453125 536.609375 C 55.796875 552.601562 30.117188 570.730469 -19.472656 570.730469 C -69.0625 570.730469 -94.742188 552.601562 -117.398438 536.609375 C -137.335938 522.535156 -154.554688 510.378906 -190.464844 510.378906 C -226.371094 510.378906 -243.589844 522.535156 -263.527344 536.609375 C -286.183594 552.601562 -311.863281 570.730469 -361.453125 570.730469 C -411.039062 570.730469 -436.71875 552.601562 -459.375 536.609375 C -479.3125 522.535156 -496.535156 510.378906 -532.441406 510.378906 C -544.34375 510.378906 -553.992188 500.730469 -553.992188 488.824219 C -553.992188 476.921875 -544.34375 467.269531 -532.441406 467.269531 C -482.851562 467.269531 -457.171875 485.398438 -434.515625 501.390625 C -414.578125 515.464844 -397.359375 527.621094 -361.453125 527.621094 C -325.546875 527.621094 -308.328125 515.464844 -288.386719 501.390625 C -265.730469 485.398438 -240.050781 467.269531 -190.464844 467.269531 C -140.875 467.269531 -115.195312 485.398438 -92.539062 501.390625 C -72.597656 515.464844 -55.378906 527.621094 -19.472656 527.621094 C 16.433594 527.621094 33.652344 515.464844 53.59375 501.390625 C 76.25 485.398438 101.929688 467.269531 151.519531 467.269531 C 201.105469 467.269531 226.789062 485.398438 249.441406 501.390625 C 269.382812 515.464844 286.601562 527.621094 322.507812 527.621094 C 358.417969 527.621094 375.636719 515.464844 395.574219 501.390625 C 418.230469 485.398438 443.910156 467.269531 493.5 467.269531 C 543.089844 467.269531 568.769531 485.398438 591.425781 501.390625 C 611.363281 515.46875 628.585938 527.621094 664.492188 527.621094 C 700.398438 527.621094 717.617188 515.46875 737.558594 501.390625 C 760.214844 485.398438 785.894531 467.269531 835.484375 467.269531 C 885.070312 467.269531 910.753906 485.398438 933.40625 501.390625 C 953.347656 515.46875 970.566406 527.621094 1006.476562 527.621094 C 1042.382812 527.621094 1059.601562 515.46875 1079.539062 501.390625 C 1102.195312 485.398438 1127.875 467.269531 1177.464844 467.269531 C 1227.054688 467.269531 1252.734375 485.398438 1275.390625 501.390625 C 1295.328125 515.464844 1312.550781 527.621094 1348.457031 527.621094 C 1384.363281 527.621094 1401.582031 515.464844 1421.523438 501.390625 C 1444.179688 485.398438 1469.859375 467.269531 1519.449219 467.269531 C 1569.035156 467.269531 1594.71875 485.398438 1617.375 501.390625 C 1637.3125 515.46875 1654.53125 527.621094 1690.441406 527.621094 C 1726.347656 527.621094 1743.570312 515.46875 1763.511719 501.390625 C 1786.167969 485.398438 1811.847656 467.269531 1861.441406 467.269531 C 1911.03125 467.269531 1936.710938 485.398438 1959.367188 501.390625 C 1979.308594 515.464844 1996.53125 527.621094 2032.4375 527.621094 C 2044.34375 527.621094 2053.992188 537.269531 2053.992188 549.175781 C 2053.992188 561.078125 2044.34375 570.730469 2032.4375 570.730469 Z M 2032.4375 570.730469 " clip-rule="nonzero"/></clipPath><clipPath id="9264a144ba"><path d="M 0 0.160156 L 1500 0.160156 L 1500 103.730469 L 0 103.730469 Z M 0 0.160156 " clip-rule="nonzero"/></clipPath><clipPath id="6919b8686c"><path d="M 2032.4375 103.730469 C 1982.847656 103.730469 1957.167969 85.601562 1934.511719 69.609375 C 1914.570312 55.535156 1897.347656 43.378906 1861.441406 43.378906 C 1825.53125 43.378906 1808.308594 55.535156 1788.367188 69.609375 C 1765.710938 85.601562 1740.03125 103.730469 1690.441406 103.730469 C 1640.851562 103.730469 1615.171875 85.601562 1592.515625 69.609375 C 1572.574219 55.535156 1555.355469 43.378906 1519.449219 43.378906 C 1483.542969 43.378906 1466.320312 55.535156 1446.382812 69.609375 C 1423.722656 85.601562 1398.042969 103.730469 1348.457031 103.730469 C 1298.867188 103.730469 1273.1875 85.601562 1250.53125 69.609375 C 1230.589844 55.535156 1213.371094 43.378906 1177.464844 43.378906 C 1141.558594 43.378906 1124.335938 55.535156 1104.398438 69.609375 C 1081.742188 85.601562 1056.0625 103.730469 1006.476562 103.730469 C 956.886719 103.730469 931.207031 85.601562 908.550781 69.609375 C 888.609375 55.535156 871.390625 43.378906 835.484375 43.378906 C 799.578125 43.378906 782.355469 55.535156 762.417969 69.609375 C 739.761719 85.601562 714.078125 103.730469 664.492188 103.730469 C 614.902344 103.730469 589.222656 85.601562 566.566406 69.609375 C 546.628906 55.535156 529.40625 43.378906 493.5 43.378906 C 457.59375 43.378906 440.375 55.535156 420.433594 69.609375 C 397.777344 85.601562 372.097656 103.730469 322.507812 103.730469 C 272.921875 103.730469 247.242188 85.601562 224.582031 69.609375 C 204.644531 55.535156 187.425781 43.378906 151.519531 43.378906 C 115.613281 43.378906 98.390625 55.535156 78.453125 69.609375 C 55.796875 85.601562 30.117188 103.730469 -19.472656 103.730469 C -69.0625 103.730469 -94.742188 85.601562 -117.398438 69.609375 C -137.335938 55.535156 -154.554688 43.378906 -190.464844 43.378906 C -226.371094 43.378906 -243.589844 55.535156 -263.527344 69.609375 C -286.183594 85.601562 -311.863281 103.730469 -361.453125 103.730469 C -411.039062 103.730469 -436.71875 85.601562 -459.375 69.609375 C -479.3125 55.535156 -496.535156 43.378906 -532.441406 43.378906 C -544.34375 43.378906 -553.992188 33.730469 -553.992188 21.824219 C -553.992188 9.921875 -544.34375 0.269531 -532.441406 0.269531 C -482.851562 0.269531 -457.171875 18.398438 -434.515625 34.390625 C -414.578125 48.464844 -397.359375 60.621094 -361.453125 60.621094 C -325.546875 60.621094 -308.328125 48.464844 -288.386719 34.390625 C -265.730469 18.398438 -240.050781 0.269531 -190.464844 0.269531 C -140.875 0.269531 -115.195312 18.398438 -92.539062 34.390625 C -72.597656 48.464844 -55.378906 60.621094 -19.472656 60.621094 C 16.433594 60.621094 33.652344 48.464844 53.59375 34.390625 C 76.25 18.398438 101.929688 0.269531 151.519531 0.269531 C 201.105469 0.269531 226.789062 18.398438 249.441406 34.390625 C 269.382812 48.464844 286.601562 60.621094 322.507812 60.621094 C 358.417969 60.621094 375.636719 48.464844 395.574219 34.390625 C 418.230469 18.398438 443.910156 0.269531 493.5 0.269531 C 543.089844 0.269531 568.769531 18.398438 591.425781 34.390625 C 611.363281 48.46875 628.585938 60.621094 664.492188 60.621094 C 700.398438 60.621094 717.617188 48.46875 737.558594 34.390625 C 760.214844 18.398438 785.894531 0.269531 835.484375 0.269531 C 885.070312 0.269531 910.753906 18.398438 933.40625 34.390625 C 953.347656 48.46875 970.566406 60.621094 1006.476562 60.621094 C 1042.382812 60.621094 1059.601562 48.46875 1079.539062 34.390625 C 1102.195312 18.398438 1127.875 0.269531 1177.464844 0.269531 C 1227.054688 0.269531 1252.734375 18.398438 1275.390625 34.390625 C 1295.328125 48.464844 1312.550781 60.621094 1348.457031 60.621094 C 1384.363281 60.621094 1401.582031 48.464844 1421.523438 34.390625 C 1444.179688 18.398438 1469.859375 0.269531 1519.449219 0.269531 C 1569.035156 0.269531 1594.71875 18.398438 1617.375 34.390625 C 1637.3125 48.46875 1654.53125 60.621094 1690.441406 60.621094 C 1726.347656 60.621094 1743.570312 48.46875 1763.511719 34.390625 C 1786.167969 18.398438 1811.847656 0.269531 1861.441406 0.269531 C 1911.03125 0.269531 1936.710938 18.398438 1959.367188 34.390625 C 1979.308594 48.464844 1996.53125 60.621094 2032.4375 60.621094 C 2044.34375 60.621094 2053.992188 70.269531 2053.992188 82.175781 C 2053.992188 94.078125 2044.34375 103.730469 2032.4375 103.730469 Z M 2032.4375 103.730469 " clip-rule="nonzero"/></clipPath><clipPath id="f9c407b029"><rect x="0" width="1500" y="0" height="104"/></clipPath><clipPath id="a51258348b"><rect x="0" width="1500" y="0" height="1038"/></clipPath></defs><rect x="-150" width="1800" fill="#ffffff" y="-149.999993" height="1799.99992" fill-opacity="1"/><rect x="-150" width="1800" fill="#f4f4f5" y="-149.999993" height="1799.99992" fill-opacity="1"/><g transform="matrix(1, 0, 0, 1, 0, 231)"><g clip-path="url(#a51258348b)"><g clip-path="url(#35c320e522)"><g clip-path="url(#f302b5b31d)"><g transform="matrix(1, 0, 0, 1, 231, 0.000000000000113687)"><g clip-path="url(#3b8c5c3249)"><g clip-path="url(#c6b7fd35af)"><g clip-path="url(#10335d49d9)"><path fill="#000000" d="M 0.722656 0.722656 L 1037.277344 0.722656 L 1037.277344 1037.277344 L 0.722656 1037.277344 Z M 0.722656 0.722656 " fill-opacity="1" fill-rule="nonzero"/></g></g></g></g></g></g><g clip-path="url(#6b002b6730)"><g clip-path="url(#f05ccdb282)"><g transform="matrix(1, 0, 0, 1, 0, 467)"><g clip-path="url(#f9c407b029)"><g clip-path="url(#9264a144ba)"><g clip-path="url(#6919b8686c)"><path fill="#f4f4f5" d="M -553.992188 0.269531 L 2053.859375 0.269531 L 2053.859375 103.730469 L -553.992188 103.730469 Z M -553.992188 0.269531 " fill-opacity="1" fill-rule="nonzero"/></g></g></g></g></g></g></g></g></svg>